<svg width="289" height="17" viewBox="0 0 289 17" fill="none" xmlns="http://www.w3.org/2000/svg">
<path d="M285.391 10.0783C283.744 9.75373 281.865 9.29889 280.269 8.91016C279.774 8.78968 280.051 8.70546 279.707 8.6168C279.02 8.44173 278.395 8.40147 277.775 8.23731C277.566 8.18188 277.864 8.01793 277.644 7.96455C276.436 7.6738 275.23 7.5457 273.913 7.31612C267.713 6.22978 261.359 5.56327 254.932 5.01901C252.742 4.83509 250.286 4.49462 248.017 4.45719C247.755 4.45315 247.901 4.64546 247.85 4.65797C247.056 4.84892 247.336 4.49119 246.825 4.41545C244.844 4.11874 242.684 4.00507 240.733 3.99927C239.906 3.9977 240.72 4.39559 239.895 4.15822C239.838 4.14215 240.055 3.95464 239.829 3.92513C239.319 3.85855 238.317 3.85733 237.948 3.82915C237.205 3.77256 237.081 3.77042 236.372 3.74508C235.402 3.70891 234.241 3.57679 233.18 3.59214C232.953 3.59601 233.247 3.80465 232.886 3.82898C232.524 3.85312 231.564 3.81141 231.24 3.7563C230.916 3.70104 231.058 3.54684 231.001 3.50931C230.524 3.19241 229.431 3.59021 229.293 3.59783C226.753 3.72066 224.544 3.44297 222.085 3.41238C220.246 3.39018 218.324 3.4521 216.567 3.43039C214.487 3.40391 212.662 3.29016 210.685 3.30875C210.473 3.31051 210.721 3.5463 210.463 3.54895C207.727 3.57701 204.909 3.56382 202.174 3.42708C201.9 3.41317 202.251 3.20319 201.977 3.17693C200.303 3.01995 197.617 2.64178 196.616 3.55708C195.469 3.53672 194.035 3.52146 193.034 3.3559C192.377 3.24957 193.01 3.0136 192.205 3.12314C192.024 3.14763 192.264 3.34117 191.991 3.36298C190.844 3.45462 189.583 3.41349 188.439 3.53812C188.206 3.56394 188.273 3.73966 188.208 3.77284C187.658 4.04185 186.723 3.63449 186.52 3.60784C184.972 3.40945 183.845 3.52626 182.435 3.55459C182.106 3.56116 182.501 3.7894 182.184 3.80428C180.543 3.87834 178.833 3.90273 177.206 3.84266C176.844 3.82874 177.171 3.61699 176.997 3.59999C176.233 3.52762 176.075 3.91484 175.34 3.85353C175.185 3.84112 175.267 3.66528 175.238 3.64707C174.788 3.3612 174.417 3.79601 174.304 3.80876C172.894 3.97892 171.976 3.56521 170.606 3.67208C170.442 3.68534 170.819 3.89257 170.358 3.91646C167.29 4.07673 163.985 4.13433 160.958 4.0755C160.484 4.06678 160.815 3.88908 160.785 3.86993C160.287 3.57148 159.989 4.00879 159.835 4.03084C158.622 4.19377 157.466 3.88362 156.655 4.42395C151.463 4.4615 146.354 4.97996 141.207 4.78229C141.142 4.78028 141.248 4.56527 141.118 4.56216C139.551 4.52295 139.867 4.83319 138.853 5.28349C138.598 5.39661 137.78 4.95745 137.708 4.92594C137.445 4.80952 137.695 4.48457 137.608 4.46389C136.888 4.30353 137.058 5.32657 136.101 5.37716C136.071 5.37702 136.187 5.18098 136.105 5.16637C135.853 5.12037 135.609 5.20872 135.361 5.15647C134.794 5.0353 134.568 4.5458 133.729 4.88283C133.622 4.92647 133.819 5.50114 132.962 5.51997C132.621 5.52678 131.121 5.61911 130.697 5.60483C130.275 5.59041 130.553 5.38629 130.523 5.37981C129.375 5.19425 129.799 5.06726 129.21 4.73092C128.621 4.39611 128.828 5.26214 128.602 5.37288C128.375 5.48333 127.531 5.32549 127.322 5.26592C127.114 5.20627 127.362 5.07216 127.178 5.04219C125.957 4.84762 126.673 5.50684 126.284 5.66858C125.366 6.05148 124.598 5.44542 123.735 5.43254C123.502 5.42911 123.7 5.56565 123.494 5.5917C122.678 5.69302 122.172 5.52003 121.255 5.76155C121.105 5.80093 120.377 6.23635 119.873 5.97987C119.802 5.9428 119.988 5.7692 119.637 5.75427C119.114 5.73167 118.174 5.75411 117.617 5.84295C117.207 5.90861 117.697 6.14546 117.171 6.09512C116.938 6.0726 117.357 5.89006 116.919 5.86076C116.483 5.83128 115.379 5.90768 114.959 5.93982C114.539 5.97197 114.782 6.15938 114.749 6.17514C114.548 6.2661 113.749 6.41495 113.678 6.41931C110.087 6.67429 106.76 6.55431 103.274 6.9084C103 6.93591 103.198 7.13622 103.156 7.14261C102.224 7.29687 102.925 6.67939 102.256 6.53546C102.381 6.96098 101.988 6.90959 101.331 7.00328C101.014 7.04879 101.199 7.20395 101.171 7.22311C100.717 7.51037 100.364 7.2054 100.275 7.14424C99.9443 6.91934 99.6243 7.23531 99.3996 7.08535C99.1751 6.93663 99.6478 6.65889 99.0137 6.7071C98.8468 6.87443 99.3464 7.24507 98.8696 7.34486C97.0705 7.7214 93.6593 7.65182 92.1988 7.7281C90.7412 7.80369 90.274 7.86785 89.4187 7.87635C87.8755 7.89197 88.461 8.149 87.5187 8.35911C86.5739 8.56967 86.9815 7.79653 86.832 7.64853C86.6849 7.50044 86.5502 7.67492 86.3759 7.60075C86.202 7.52657 86.5556 7.39082 86.1599 7.38849C85.7639 7.38616 84.7109 7.7517 84.5847 7.92839C84.3177 8.30259 84.8303 8.63321 83.7811 8.58515C83.7207 8.58215 83.8994 8.37303 83.6691 8.37139C81.8379 8.36499 79.9603 8.50559 78.123 8.52188C77.8711 8.52376 78.0775 8.28991 77.9307 8.28857C76.4022 8.27418 76.9742 8.59369 76.1766 9.06567C76.3191 8.51288 75.8322 8.22148 74.6825 8.31342C73.9915 8.36858 74.13 8.59349 73.6973 8.79609C73.5675 8.8571 73.0658 8.73668 72.9866 8.85449C72.7252 9.23979 73.2183 9.6051 72.0228 9.54354C71.9703 9.54026 72.1188 9.32884 71.9386 9.33196C70.7741 9.35127 70.6675 9.74039 69.4221 9.89259C68.4391 10.0125 66.664 9.93377 65.5405 9.99427C65.5113 9.38809 64.4648 9.61898 64.0728 10.0732C63.345 10.1201 62.5636 10.213 61.8582 10.2178C61.6154 10.2197 61.7582 10.0307 61.7261 10.0145C61.2335 9.75966 60.9551 10.193 60.8003 10.2229C59.1269 10.5285 57.704 10.3481 56.1055 10.7975C56.0489 10.8137 55.9939 11.2417 55.5314 10.9754C55.5014 10.9569 56.0203 10.7166 55.2548 10.7723C54.4891 10.828 53.0299 10.737 51.9921 11.0307C51.7408 11.1015 51.1269 11.5027 50.584 11.2858C50.5115 11.2563 50.5757 11.1288 50.4697 11.0714C50.1276 10.8886 49.9922 11.3291 49.58 11.005C49.168 10.681 48.3574 10.4861 47.3034 10.8384C47.2699 10.8489 47.0481 11.2093 46.7102 11.2366C46.1707 11.2799 45.4003 11.2841 44.8399 11.341C44.5715 11.3684 44.7638 11.5602 44.7175 11.5686C42.925 11.8619 41.627 11.8026 39.701 11.9143C39.3464 11.9345 38.3733 12.3196 37.654 12.1657C36.872 11.9966 37.5445 10.8938 35.8313 11.3153C35.1406 11.4846 34.3892 12.8736 33.0681 12.3312C30.6542 12.7508 28.414 12.6401 25.9708 13.1445C25.8618 13.1669 25.5531 13.5666 25.2944 13.5897C24.9101 13.6233 24.6815 13.4769 24.407 13.4955C23.2564 13.5693 22.2286 13.8288 21.1309 13.9278C20.7142 13.9657 20.84 13.7746 20.3437 13.82C19.8479 13.8655 19.5441 14.1326 18.8636 14.0963C18.3452 14.0687 17.7707 13.6566 17.0825 13.679C17.1092 14.1463 16.6384 14.1899 15.8216 14.4073C15.6646 14.4493 15.8543 14.5913 15.781 14.6195C15.4833 14.7379 15.1838 14.6365 14.9032 14.7606C14.8348 14.7905 14.8498 14.9494 14.7949 14.9828C14.3295 15.2728 13.4804 15.0095 13.3346 14.9635C12.7759 14.7892 12.5521 15.0242 12.1348 14.9787C11.7185 14.9332 12.3113 14.7464 11.8311 14.7453C10.8301 14.744 9.60124 14.9146 8.57875 15.0288C8.17362 15.075 8.47501 15.2537 8.41762 15.2653C7.58697 15.4185 6.7175 15.2946 6.30745 15.7714C5.60025 14.7516 5.81791 15.9374 4.60896 15.863C4.51382 15.8567 4.33249 15.356 4.68097 15.2369C5.02946 15.1179 5.59225 15.2131 6.07665 15.0351C6.19111 14.9932 6.8105 14.429 6.89985 14.3887C7.59792 14.0732 7.79355 14.8309 7.83691 14.8685C8.32537 15.273 9.10396 14.6531 9.30957 14.5924C10.2684 14.312 11.1163 14.3223 11.9272 14.1086C12.4578 13.9697 12.4523 13.4591 12.8788 13.4252C14.2986 13.3126 14.8744 13.9597 16.1467 13.1963C16.42 13.0333 16.0702 12.5142 17.1536 12.8307C17.2216 12.8506 18.0352 13.1605 18.4524 12.8595C18.5047 12.8216 18.4852 12.661 18.557 12.6392C19.0299 12.4976 19.3668 12.5896 19.8875 12.4694C20.4082 12.3492 21.0339 12.1871 21.6451 12.1748C22.0133 12.1671 22.5149 12.4151 22.698 12.4693C23.215 12.6263 23.708 12.2218 24.043 12.4442C24.3807 12.6676 23.8178 13.1242 24.648 13.2019C24.6326 12.7808 24.655 12.3444 24.6578 11.9189C26.4366 11.7404 28.2395 11.684 29.9921 11.4802C30.2116 11.4543 29.9631 11.2533 30.1978 11.2197C31.1883 11.0792 32.076 11.1482 33.1062 10.9766C33.9036 10.843 34.7615 10.5139 35.5991 10.3675C36.1628 10.7931 37.4014 10.5026 38.3177 10.4543C38.6337 10.4377 38.6257 10.5676 38.8536 10.5868C39.714 10.6559 39.2757 10.2729 39.5007 10.1831C40.4674 9.79926 40.6482 10.7479 41.822 10.6074C41.8841 10.6003 42.5963 10.0145 42.6985 9.97238C43.3465 9.69924 42.8266 10.1391 43.2487 10.1356C44.0198 10.1293 44.5633 10.1991 45.4482 9.96206C45.7061 9.89225 46.3051 9.513 46.8395 9.70979C46.9098 9.73553 46.8889 9.90782 46.9439 9.91249C47.9382 9.98286 47.9151 9.4502 48.4559 9.21718C48.9913 8.98474 49.8812 9.26942 50.0653 9.35842C50.5466 9.58811 49.7274 9.50815 49.7054 9.53729C49.4462 9.88352 50.0642 9.76932 50.5437 9.75113C50.6618 10.2644 51.3259 10.1702 51.0406 9.73021C51.0083 9.68224 50.6417 9.76581 50.5437 9.75113C50.9139 9.20144 51.6415 9.06682 52.498 9.46748C52.899 9.65537 52.5635 9.94931 53.71 9.74633C54.2307 9.65452 53.9947 9.31534 54.449 9.17475C55.4872 8.85385 56.897 9.06122 57.9887 8.90898C58.385 8.85371 57.9795 8.69292 58.2497 8.6484C58.9699 8.52941 59.6056 8.62031 60.319 8.48032C60.3834 8.46741 60.206 8.27647 60.4292 8.25381C62.1213 8.07811 63.612 8.07862 65.3901 7.92707C66.249 7.85368 67.7776 7.60745 68.6726 7.55385C70.2176 7.45991 72.1278 7.59943 73.4383 7.41727C74.2923 7.29941 74.0871 7.10976 74.4433 6.93932C75.1307 6.60915 76.4289 6.99172 76.6045 7.05316C76.6098 7.05521 75.8741 7.16428 76.2774 7.23734C76.5249 7.43821 76.5962 7.0548 76.6045 7.05316C76.7196 7.09255 78.2021 7.01872 78.493 6.95581C78.6509 6.92143 78.5458 6.73405 78.6285 6.71981C80.5947 6.38553 82.5561 6.17991 84.5672 6.11456C84.6028 6.11574 84.5667 6.33761 84.6501 6.33767C85.8165 6.34416 86.5385 6.02052 87.4836 5.78897C88.4286 5.55756 89.1924 5.55291 89.7876 5.88392C90.5077 5.78214 91.5514 5.87018 92.1544 5.92621C92.7568 5.98225 92.8084 5.55222 92.8602 5.53995C94.474 5.15088 95.4369 5.32445 97.1359 5.23987C97.9438 5.20032 99.5398 5.02475 100.41 4.91697C101.099 4.83097 101.521 4.9013 102.152 4.79346C102.238 4.77898 102.138 4.59621 102.163 4.58711C102.857 4.31185 102.548 4.79719 102.701 4.86946C103.253 5.13247 103.592 5.2694 104.491 5.06606C104.698 5.01938 105.263 4.31296 105.643 4.24814C106.137 4.16511 105.965 4.41607 106.482 4.32319C106.526 4.31547 106.507 4.16908 106.828 4.15392C108.321 4.08166 109.952 4.05955 111.499 3.94408C111.711 3.92886 111.424 3.71332 111.73 3.68749C113.165 3.5665 114.74 3.47463 116.145 3.49606C116.491 3.50208 116.285 3.67892 116.363 3.72272C116.84 3.98734 117.464 3.52061 117.571 3.50584C120.118 3.14235 122.094 3.41038 124.7 3.07331C124.842 3.05413 125.91 2.53329 126.421 2.89731C126.456 2.92146 126.962 3.29476 127.373 2.99615C127.399 2.97748 127.086 2.78814 127.612 2.77924C128.138 2.7703 128.975 2.5846 129.708 2.77124C129.941 2.82996 130.502 3.2 131.164 2.84351C131.207 2.81874 132.218 2.03978 132.619 2.51717C132.684 2.59581 132.648 3.12584 133.45 2.81169C133.603 2.75093 133.314 2.64871 133.721 2.55322C134.344 2.40628 135.185 2.50289 135.945 2.22762C136.078 2.17898 136.632 1.79136 137.106 2.03882C137.181 2.07757 137.053 2.26052 137.297 2.26759C138.456 2.30205 139.657 2.12289 140.831 2.18612C141.247 2.20821 141.05 2.50305 141.485 2.55779C141.92 2.61248 142.791 2.64304 143.235 2.49122C143.683 2.33917 143.165 1.9101 143.844 1.84082C146.799 1.54007 149.735 1.67175 152.667 1.58348C153.102 1.57048 152.735 1.42382 153.375 1.39317C155.759 1.27746 159.862 0.960008 161.923 1.2284C163.575 1.44269 161.517 1.73051 162.776 1.79581C163.383 1.82676 164.014 1.27591 164.164 1.25381C165.605 1.03263 166.615 1.23094 167.907 1.11507C168.174 1.0911 167.904 0.886362 168.132 0.868341C168.907 0.804913 169.725 0.873271 170.464 0.831865C170.796 0.812814 170.729 0.651595 171.035 0.6544C171.765 0.65929 172.412 0.707706 173.125 0.838927C173.19 0.850887 172.761 1.06724 173.299 1.05832C174.161 1.04362 175.275 1.1616 176.282 0.976964C176.581 0.921542 176.583 0.548092 177.236 0.787657C177.373 0.837726 177.213 1.2903 177.954 0.882645C178.079 0.81476 179.326 0.258728 179.951 0.579412C180.116 0.663745 180.541 1.0196 180.898 0.95295C180.946 0.942533 180.746 0.747066 181.043 0.720032C182.09 0.628261 183.18 0.623459 184.253 0.536188C184.545 0.512401 184.106 0.314896 184.54 0.286098C185.734 0.206581 187.22 0.228009 188.379 0.270248C188.806 0.286206 188.515 0.463772 188.546 0.481855C189.051 0.77617 189.338 0.360223 189.503 0.333171C190.529 0.170588 191.313 0.349638 192.254 0.282907C192.513 0.26504 192.326 0.0723898 192.377 0.0540826C192.911 -0.125221 192.517 0.232773 192.857 0.266006C193.798 0.360509 194.891 0.328432 195.865 0.290151C196.224 0.275804 195.818 0.0543323 196.14 0.0441062C198.045 -0.0206404 200.012 -0.0204105 201.843 0.0892766C202.188 0.110355 201.972 0.28693 202.044 0.326244C202.542 0.601331 203.26 0.215133 203.428 0.177711C204.204 0.00667381 204.506 0.159413 205.189 0.126802C208.545 -0.0357871 212.515 0.0657227 215.709 0.146634C219.779 0.250705 222.918 0.4532 226.812 0.480502C227.058 0.482532 226.815 0.245481 227.027 0.244269C229.721 0.238657 232.487 0.395936 235.228 0.412036C235.452 0.413789 235.135 0.183591 235.496 0.179051C236.237 0.168207 237.167 0.210549 237.902 0.306464C238.26 0.352834 237.772 0.525077 238.132 0.567921C238.97 0.668111 239.936 0.719609 240.822 0.719308C241.202 0.718842 240.639 0.470874 241.132 0.487893C244.469 0.599361 247.713 0.717731 251.077 1.21042C251.304 1.24413 251.477 1.71336 251.966 1.65543C252.01 1.53077 252.017 1.38138 252.042 1.24672C256.876 1.47295 261.685 2.00698 266.503 2.53289C266.703 2.55473 266.383 2.27719 266.77 2.31834C269.024 2.55858 271.388 2.76995 273.589 3.31154C273.811 3.36577 273.625 3.77046 274.346 3.80527C274.474 3.81056 275.539 3.90521 275.82 3.85394C275.859 3.84555 275.698 3.62011 276.035 3.66424C277.987 3.92441 279.924 4.29085 281.89 4.7888C282.197 4.86783 281.827 5.01309 282.044 5.0712C283.56 5.47633 285.284 5.67823 286.761 6.23506C287.719 6.60347 287.263 6.8701 287.684 7.34975C287.745 7.41724 288.325 7.57839 288.299 7.78954C288.238 8.32007 287.813 8.80555 287.781 9.37991C287.776 9.50308 288.552 9.57937 288.036 9.74241C288.001 9.75275 287.433 9.7015 287.271 9.76275C287.159 9.80476 287.275 10.0557 287.061 10.091C286.847 10.1265 286.678 9.89829 286.326 9.91735C285.972 9.93818 286.063 10.209 285.391 10.0783ZM94.8672 6.17681C95.4333 6.34015 95.4603 5.58846 94.877 5.81044C94.8488 5.82206 94.838 6.16891 94.8672 6.17681ZM28.2735 12.2485C29.024 12.5001 29.4582 11.9665 28.929 11.7665C28.4016 11.5667 28.0421 12.1726 28.2735 12.2485ZM20.8324 13.3004C21.6956 13.4663 21.7108 12.3979 20.8399 12.7101C20.7892 12.7279 20.782 13.2908 20.8324 13.3004ZM285.229 6.86318C285.235 6.87449 285.685 6.9872 285.697 6.98023C285.991 6.80406 285.091 6.57814 285.229 6.86318ZM13.4637 14.3993C13.7414 14.5115 14.4771 14.2601 14.1311 14.1204C13.8522 14.008 13.1174 14.2597 13.4637 14.3993ZM123.691 5.06956C123.7 5.08016 124.021 5.07128 124.011 5.0088C123.977 4.80755 123.535 4.89103 123.691 5.06956ZM0.937229 15.9127C2.77502 15.725 4.00194 16.4575 1.98613 16.606C1.62159 16.6329 2.73287 16.2324 2.26191 16.2109C1.40018 16.1723 0.909467 16.7874 0.0180286 16.6017C-0.143746 16.5675 0.831632 15.9215 0.940353 15.9111C0.939219 15.9116 0.938301 15.9122 0.937229 15.9127ZM95.25 7.04937C95.2618 7.05841 95.7047 7.03554 95.7146 7.025C95.9369 6.77079 95.0444 6.81674 95.25 7.04937ZM142.378 4.51953C142.404 4.53929 143.427 4.50893 143.461 4.48791C143.977 4.07404 141.904 4.13441 142.378 4.51953ZM65.5215 9.97969C65.0596 10.2597 64.4855 10.3383 64.075 10.0734C64.5553 10.0471 65.038 10.0071 65.5215 9.97969Z" fill="#C760E3"/>
</svg>
