<svg width="26" height="40" viewBox="0 0 26 40" fill="none" xmlns="http://www.w3.org/2000/svg">
<path d="M0 35.0667L0.555556 40L4.15555 36.5778L10.3111 19.6889C8.8 19.3111 7.46666 18.5556 6.37778 17.5111L0 35.0667ZM18.6889 17.5111C17.6 18.5556 16.2444 19.3111 14.7556 19.6889L20.9111 36.5778L24.5111 40L25.0889 35.0667L18.6889 17.5111ZM19.2 11.1111C19.2 8.22222 17.3333 5.77778 14.7556 4.84444V0H10.3111V4.84444C7.73333 5.77778 5.86667 8.22222 5.86667 11.1111C5.86667 14.8 8.84444 17.7778 12.5333 17.7778C16.2222 17.7778 19.2 14.8 19.2 11.1111ZM12.5333 13.3333C11.3111 13.3333 10.3111 12.3333 10.3111 11.1111C10.3111 9.88889 11.3111 8.88889 12.5333 8.88889C13.7556 8.88889 14.7556 9.88889 14.7556 11.1111C14.7556 12.3333 13.7556 13.3333 12.5333 13.3333Z" fill="#C760E3"/>
</svg>
