<svg width="40" height="40" viewBox="0 0 40 40" fill="none" xmlns="http://www.w3.org/2000/svg">
<path d="M17.8938 7.49843H24.1498L31.0105 0.616838C31.2044 0.421383 31.435 0.266246 31.6892 0.160376C31.9433 0.0545069 32.2158 0 32.4911 0C32.7664 0 33.039 0.0545069 33.2931 0.160376C33.5472 0.266246 33.7779 0.421383 33.9717 0.616838L39.3519 6.01785C39.7403 6.40856 39.9583 6.93709 39.9583 7.48801C39.9583 8.03892 39.7403 8.56745 39.3519 8.95817L34.5765 13.7544H17.8938V17.9251C17.8938 18.4782 17.6741 19.0086 17.283 19.3996C16.8919 19.7907 16.3615 20.0104 15.8085 20.0104C15.2554 20.0104 14.725 19.7907 14.3339 19.3996C13.9428 19.0086 13.7231 18.4782 13.7231 17.9251V11.6691C13.7231 10.563 14.1625 9.50214 14.9447 8.71999C15.7268 7.93784 16.7877 7.49843 17.8938 7.49843ZM5.38181 17.9251V26.2664L0.606399 31.0418C0.218004 31.4325 0 31.9611 0 32.512C0 33.0629 0.218004 33.5914 0.606399 33.9822L5.98656 39.3832C6.18041 39.5786 6.41105 39.7338 6.66517 39.8396C6.91929 39.9455 7.19185 40 7.46714 40C7.74243 40 8.015 39.9455 8.26911 39.8396C8.52323 39.7338 8.75387 39.5786 8.94773 39.3832L17.8938 30.4371H26.2351C26.7882 30.4371 27.3186 30.2174 27.7097 29.8263C28.1008 29.4352 28.3205 28.9048 28.3205 28.3518V26.2664H30.4058C30.9589 26.2664 31.4893 26.0467 31.8804 25.6556C32.2714 25.2646 32.4911 24.7342 32.4911 24.1811V22.0958H34.5765C35.1295 22.0958 35.6599 21.8761 36.051 21.485C36.4421 21.0939 36.6618 20.5635 36.6618 20.0104V17.9251H22.0645V20.0104C22.0645 21.1166 21.6251 22.1774 20.8429 22.9595C20.0608 23.7417 18.9999 24.1811 17.8938 24.1811H13.7231C12.617 24.1811 11.5562 23.7417 10.774 22.9595C9.99188 22.1774 9.55247 21.1166 9.55247 20.0104V13.7544L5.38181 17.9251Z" fill="#C760E3"/>
</svg>
