<svg width="40" height="40" viewBox="0 0 40 40" fill="none" xmlns="http://www.w3.org/2000/svg">
<path d="M39.0557 7.96828C38.9528 7.76827 38.8042 7.59538 38.6219 7.46368C38.4396 7.33198 38.2288 7.2452 38.0066 7.2104C37.7844 7.1756 37.5571 7.19377 37.3433 7.26342C37.1294 7.33308 36.9351 7.45225 36.776 7.61124L31.2918 13.099C31.0226 13.3643 30.6598 13.513 30.2819 13.513C29.9039 13.513 29.5411 13.3643 29.2719 13.099L26.9011 10.7246C26.7685 10.592 26.6633 10.4346 26.5915 10.2613C26.5197 10.088 26.4827 9.90223 26.4827 9.71466C26.4827 9.52708 26.5197 9.34134 26.5915 9.16805C26.6633 8.99475 26.7685 8.8373 26.9011 8.70468L32.3621 3.24285C32.5258 3.07917 32.6472 2.87814 32.716 2.65709C32.7848 2.43603 32.7987 2.20158 32.7568 1.97391C32.7148 1.74625 32.6181 1.53221 32.475 1.35022C32.3319 1.16823 32.1467 1.02375 31.9354 0.929229C27.8107 -0.914885 22.6622 0.0473391 19.4158 3.26963C16.6576 6.00813 15.8356 10.2873 17.162 15.01C17.2335 15.2619 17.2339 15.5286 17.1632 15.7807C17.0924 16.0327 16.9533 16.2603 16.7612 16.4382L1.90117 30.0102C1.32226 30.5299 0.855316 31.1622 0.528811 31.8684C0.202306 32.5746 0.023087 33.3399 0.00208708 34.1176C-0.0189128 34.8953 0.118746 35.6691 0.406668 36.3919C0.694589 37.1147 1.12674 37.7712 1.67675 38.3215C2.22676 38.8717 2.8831 39.3042 3.60574 39.5924C4.32838 39.8806 5.10217 40.0186 5.8799 39.998C6.65763 39.9773 7.423 39.7984 8.12932 39.4723C8.83564 39.1461 9.46811 38.6794 9.98813 38.1007L23.7056 23.2077C23.8809 23.018 24.1047 22.8798 24.3527 22.808C24.6008 22.7361 24.8637 22.7332 25.1133 22.7997C26.4578 23.1682 27.8448 23.3593 29.2389 23.3683C32.2201 23.3683 34.8364 22.4034 36.7233 20.5441C40.2179 17.1014 40.7507 11.262 39.0557 7.96828ZM6.02409 37.1233C5.43622 37.1875 4.84293 37.0676 4.32609 36.7802C3.80926 36.4929 3.39436 36.0521 3.13865 35.5189C2.88295 34.9857 2.79906 34.3863 2.89854 33.8033C2.99803 33.2204 3.27599 32.6827 3.69407 32.2645C4.11215 31.8463 4.64974 31.5681 5.23263 31.4684C5.81553 31.3687 6.415 31.4524 6.94831 31.7079C7.48162 31.9634 7.92248 32.3782 8.21004 32.8949C8.4976 33.4117 8.61768 34.0049 8.55372 34.5928C8.48335 35.2396 8.19424 35.8431 7.73424 36.3032C7.27423 36.7634 6.67091 37.0527 6.02409 37.1233Z" fill="#C760E3"/>
</svg>
