<svg width="25" height="25" viewBox="0 0 25 25" fill="none" xmlns="http://www.w3.org/2000/svg">
<path opacity="0.5" d="M11.1881 0.740012C11.4537 -0.24667 12.8536 -0.246671 13.1193 0.74001L15.186 8.41577C15.2786 8.75991 15.5475 9.02873 15.8916 9.12139L23.5674 11.1881C24.554 11.4537 24.554 12.8536 23.5674 13.1193L15.8916 15.186C15.5475 15.2786 15.2786 15.5475 15.186 15.8916L13.1193 23.5674C12.8536 24.554 11.4537 24.554 11.1881 23.5674L9.12139 15.8916C9.02873 15.5475 8.75991 15.2786 8.41577 15.186L0.740012 13.1193C-0.24667 12.8536 -0.246671 11.4537 0.74001 11.1881L8.41577 9.12139C8.75991 9.02873 9.02873 8.75991 9.12139 8.41577L11.1881 0.740012Z" fill="url(#paint0_linear_1002_133)"/>
<defs>
<linearGradient id="paint0_linear_1002_133" x1="12.1537" y1="-2.84632" x2="12.1537" y2="27.1537" gradientUnits="userSpaceOnUse">
<stop stop-color="#C760E3"/>
<stop offset="1" stop-color="#0FBAA7"/>
</linearGradient>
</defs>
</svg>
