<svg width="40" height="40" viewBox="0 0 40 40" fill="none" xmlns="http://www.w3.org/2000/svg">
<path d="M32 16V12H36V16H32ZM32 20V16H28V20H32ZM32 12V8H28V12H32ZM28 1.68V4H32C30.74 3.08 29.42 2.3 28 1.68ZM32 4V8H36C34.84 6.5 33.5 5.16 32 4ZM36 8V12H38.32C37.7 10.58 36.92 9.26 36 8ZM40 20C40 18.64 39.86 17.3 39.6 16H36V20H40ZM28 8V4H24V8H28ZM28 28H32V24H28V28ZM32 32H36V28H32V32ZM28 36H32V32H28V36ZM24 39.6C25.4 39.32 26.72 38.88 28 38.32V36H24V39.6ZM32 24H36V20H32V24ZM28 12H24V16H28V12ZM36 28H38.32C38.88 26.72 39.32 25.4 39.6 24H36V28ZM28 20H24V24H28V20ZM20 32V28H24V24H20V20H24V16H20V12H24V8H20V4H24V0.4C22.7 0.14 21.38 0 20 0C9 0 0 9 0 20C0 31 9 40 20 40V36H24V32H20ZM24 32H28V28H24V32Z" fill="#C760E3"/>
</svg>
